<svg xmlns="http://www.w3.org/2000/svg" viewBox="0 0 512 512">
  <rect width="512" height="512" rx="128" fill="#FF6B35"/>
  <path d="M160 128c0-17.7 14.3-32 32-32H224c17.7 0 32 14.3 32 32V384h32c17.7 0 32 14.3 32 32v32c0 17.7-14.3 32-32 32H160c-17.7 0-32-14.3-32-32V416c0-17.7 14.3-32 32-32h32V128z" fill="white"/>
  <path d="M352 128c17.7 0 32 14.3 32 32V384h32c17.7 0 32 14.3 32 32v32c0 17.7-14.3 32-32 32H288c-17.7 0-32-14.3-32-32V416c0-17.7 14.3-32 32-32h32V160c0-17.7 14.3-32 32-32z" fill="white"/>
</svg>
